<?xml version="1.0" encoding="UTF-8"?>
<svg version="1.1" xmlns="http://www.w3.org/2000/svg" width="500" height="500">
<path d="M0 0 C1.11047699 0.00237671 2.22095398 0.00475342 3.36508179 0.00720215 C31.44198199 0.10016788 59.77426347 1.78305814 86.25 11.9375 C87.40048828 12.36095703 87.40048828 12.36095703 88.57421875 12.79296875 C95.63197 15.44112329 102.25668373 18.73464998 108.75 22.5625 C109.6059375 23.06007813 110.461875 23.55765625 111.34375 24.0703125 C111.9728125 24.52148438 112.601875 24.97265625 113.25 25.4375 C113.25 26.0975 113.25 26.7575 113.25 27.4375 C114.0853125 27.7778125 114.0853125 27.7778125 114.9375 28.125 C121.79625674 32.01780788 127.93831762 39.96997642 132.25 46.4375 C132.25 47.4275 132.25 48.4175 132.25 49.4375 C132.91 49.4375 133.57 49.4375 134.25 49.4375 C141.2847341 65.23719405 141.2847341 65.23719405 143.25 73.4375 C143.66765625 75.05591797 143.66765625 75.05591797 144.09375 76.70703125 C151.19927863 109.17534958 146.10878849 144.78629469 129.25 173.4375 C126.75477891 177.25428178 124.07049873 180.85698664 121.25 184.4375 C120.26580078 185.76007813 120.26580078 185.76007813 119.26171875 187.109375 C115.73349057 191.81367925 115.73349057 191.81367925 114.25 193.4375 C113.59 193.4375 112.93 193.4375 112.25 193.4375 C112.25 194.0975 112.25 194.7575 112.25 195.4375 C111.59 195.4375 110.93 195.4375 110.25 195.4375 C110.25 196.0975 110.25 196.7575 110.25 197.4375 C109.59 197.4375 108.93 197.4375 108.25 197.4375 C108.25 198.0975 108.25 198.7575 108.25 199.4375 C98.72562755 207.84546249 82.25005978 220.4375 69.25 220.4375 C72.42539556 223.86328949 72.42539556 223.86328949 76.25 226.4375 C76.25 227.0975 76.25 227.7575 76.25 228.4375 C76.806875 228.685 77.36375 228.9325 77.9375 229.1875 C82.9146449 231.87784859 86.37031791 235.55363649 89.875 239.9375 C90.63039063 240.8759375 91.38578125 241.814375 92.1640625 242.78125 C92.85242188 243.6578125 93.54078125 244.534375 94.25 245.4375 C94.83523438 246.1696875 95.42046875 246.901875 96.0234375 247.65625 C97.25 249.4375 97.25 249.4375 97.25 251.4375 C97.91 251.4375 98.57 251.4375 99.25 251.4375 C99.77787109 252.43716797 99.77787109 252.43716797 100.31640625 253.45703125 C102.89287614 258.26689018 105.53626963 262.97962952 108.5 267.5625 C118.17866142 282.55910725 126.72096698 298.26899551 135.25 313.9375 C136.24900843 315.77137384 137.24915525 317.60462769 138.25 319.4375 C138.61593262 320.1078125 138.98186523 320.778125 139.35888672 321.46875 C143.90155652 329.77205124 148.47105026 337.98169946 153.65625 345.90625 C155.92680606 349.51242727 157.91257522 353.25460274 159.890625 357.02734375 C161.19595141 359.47097587 161.19595141 359.47097587 162.921875 361.62890625 C164.25 363.4375 164.25 363.4375 164.25 365.4375 C164.91 365.4375 165.57 365.4375 166.25 365.4375 C167.37379921 366.8823847 168.49450734 368.33158294 169.54296875 369.83203125 C174.65340558 374.63841463 182.57910942 375.62925676 189.1875 377.125 C192.508125 377.888125 195.82875 378.65125 199.25 379.4375 C199.25 389.0075 199.25 398.5775 199.25 408.4375 C189.20097249 408.52799102 179.15221711 408.60132537 169.1028738 408.64474869 C164.43618528 408.66559328 159.7697908 408.69385351 155.10327148 408.73925781 C150.5969308 408.78282753 146.09087235 408.80666063 141.58433723 408.81700897 C139.86797711 408.82438042 138.15163184 408.83877524 136.43539238 408.86042023 C134.02487089 408.88960298 131.61550466 408.89344993 129.20483398 408.89160156 C128.50064331 408.90598267 127.79645264 408.92036377 127.07092285 408.93518066 C120.7526598 408.88300981 116.71871017 406.62905711 112.04272461 402.47802734 C107.01987415 396.76350347 103.31810723 390.79989855 99.8125 384.0625 C98.97682495 382.48855469 98.97682495 382.48855469 98.12426758 380.8828125 C93.95409264 372.96182324 90.05020463 364.93208945 86.29296875 356.80859375 C84.370051 352.65731611 82.32558395 348.57654706 80.25 344.5 C77.23519775 338.55586862 74.45647067 332.52778082 71.75 326.4375 C68.13176959 318.30015472 64.28395447 310.31840948 60.23828125 302.38623047 C59.22028612 300.37890904 58.21744009 298.36464672 57.21875 296.34765625 C53.47886279 288.80069823 49.62768603 281.3549459 45.5 274.01171875 C44.25 271.4375 44.25 271.4375 44.25 268.4375 C43.59 268.4375 42.93 268.4375 42.25 268.4375 C41.88648438 267.74785156 41.52296875 267.05820312 41.1484375 266.34765625 C37.11892371 258.81556509 32.95248611 251.50444859 27.375 245 C25.25 242.4375 25.25 242.4375 25.25 240.4375 C24.59 240.4375 23.93 240.4375 23.25 240.4375 C23.25 239.7775 23.25 239.1175 23.25 238.4375 C22.445625 238.06625 22.445625 238.06625 21.625 237.6875 C18.70934516 236.15294482 15.99146402 234.26514268 13.25 232.4375 C-20.41 231.9425 -20.41 231.9425 -54.75 231.4375 C-54.42 278.6275 -54.09 325.8175 -53.75 374.4375 C-36.59 376.0875 -19.43 377.7375 -1.75 379.4375 C0.05279191 381.24029191 -0.61963395 383.97797701 -0.6171875 386.40625 C-0.61589844 387.61667969 -0.61460937 388.82710938 -0.61328125 390.07421875 C-0.61714844 391.34910156 -0.62101563 392.62398438 -0.625 393.9375 C-0.62113281 395.21238281 -0.61726562 396.48726563 -0.61328125 397.80078125 C-0.61521484 399.61642578 -0.61521484 399.61642578 -0.6171875 401.46875 C-0.61831543 402.58830078 -0.61944336 403.70785156 -0.62060547 404.86132812 C-0.75 407.4375 -0.75 407.4375 -1.75 408.4375 C-3.77264073 408.53645546 -5.79879272 408.56382292 -7.82385254 408.56448364 C-8.46511912 408.56604363 -9.1063857 408.56760362 -9.7670846 408.56921089 C-11.93133449 408.57322244 -14.09551512 408.57003066 -16.25976562 408.56689453 C-17.80506939 408.5682485 -19.35037283 408.57002841 -20.89567566 408.57220459 C-25.10423505 408.5767794 -29.31277004 408.57498917 -33.52132988 408.5718255 C-37.91579125 408.56930215 -42.31025047 408.57163937 -46.70471191 408.57321167 C-54.08585995 408.57503344 -61.46699801 408.57262687 -68.84814453 408.56787109 C-77.3942738 408.56242846 -85.94037921 408.56419111 -94.48650789 408.5696975 C-101.81047664 408.57422842 -109.13443818 408.57487928 -116.45840788 408.57225883 C-120.83863434 408.57069594 -125.21884957 408.57050261 -129.59907532 408.57379532 C-133.71611465 408.57667374 -137.83312309 408.57469889 -141.95015907 408.56890106 C-143.46554322 408.5675733 -144.98092995 408.56796784 -146.4963131 408.57016373 C-148.55629357 408.57287463 -150.61617348 408.56949488 -152.67614746 408.56448364 C-153.83169884 408.56410662 -154.98725021 408.56372959 -156.1778183 408.56334114 C-158.75 408.4375 -158.75 408.4375 -159.75 407.4375 C-159.84983058 405.44992972 -159.88080753 403.4588248 -159.8828125 401.46875 C-159.88410156 400.25832031 -159.88539063 399.04789062 -159.88671875 397.80078125 C-159.88285156 396.52589844 -159.87898438 395.25101562 -159.875 393.9375 C-159.87886719 392.66261719 -159.88273437 391.38773437 -159.88671875 390.07421875 C-159.88542969 388.86378906 -159.88414062 387.65335937 -159.8828125 386.40625 C-159.88168457 385.28669922 -159.88055664 384.16714844 -159.87939453 383.01367188 C-159.75 380.4375 -159.75 380.4375 -158.75 379.4375 C-154.24540981 378.70797721 -149.71013519 378.19667191 -145.1796875 377.65307617 C-142.91820459 377.38021293 -140.65837496 377.09589001 -138.3984375 376.81054688 C-136.93498218 376.6321029 -135.47144257 376.45434869 -134.0078125 376.27734375 C-133.34588898 376.19298569 -132.68396545 376.10862762 -132.00198364 376.02171326 C-126.14299597 375.33594365 -120.7779155 375.4375 -114.75 375.4375 C-114.75 264.5575 -114.75 153.6775 -114.75 39.4375 C-117.72 39.1075 -120.69 38.7775 -123.75 38.4375 C-125.37399305 38.22131239 -126.99686391 37.99606729 -128.6171875 37.75390625 C-129.43533936 37.63192871 -130.25349121 37.50995117 -131.09643555 37.38427734 C-131.93086182 37.25746582 -132.76528809 37.1306543 -133.625 37 C-134.49616455 36.86803223 -135.3673291 36.73606445 -136.26489258 36.60009766 C-154.35310104 33.83439896 -154.35310104 33.83439896 -155.75 32.4375 C-155.83767112 30.36487924 -155.85695873 28.28929706 -155.84765625 26.21484375 C-155.84282227 24.32475586 -155.84282227 24.32475586 -155.83789062 22.39648438 C-155.82953403 21.05598891 -155.82106907 19.71549412 -155.8125 18.375 C-155.8074866 17.03060058 -155.80292342 15.6861994 -155.79882812 14.34179688 C-155.78699488 11.04032059 -155.77050971 7.73893197 -155.75 4.4375 C-154.69432831 4.43163376 -153.63865662 4.42576752 -152.55099487 4.41972351 C-142.40855882 4.36152243 -132.26631756 4.28829777 -122.12408257 4.20178509 C-116.91476978 4.15779448 -111.70552266 4.11840177 -106.49609375 4.09106445 C-84.14973599 3.97043667 -61.99757914 3.47245917 -39.73208618 1.50796509 C-26.47913037 0.34464864 -13.30667759 -0.07733835 0 0 Z M-43.0625 32.4375 C-44.11195801 32.5204834 -45.16141602 32.6034668 -46.24267578 32.68896484 C-47.21060059 32.77098145 -48.17852539 32.85299805 -49.17578125 32.9375 C-50.03598877 33.0096875 -50.89619629 33.081875 -51.7824707 33.15625 C-53.74909785 33.23662101 -53.74909785 33.23662101 -54.75 34.4375 C-54.84692063 36.57643267 -54.87186803 38.71862967 -54.87025452 40.85975647 C-54.87153615 41.87784264 -54.87153615 41.87784264 -54.87284368 42.91649622 C-54.87450041 45.20745926 -54.868974 47.49835026 -54.86352539 49.78930664 C-54.86324353 51.42490131 -54.86340122 53.0604961 -54.8639679 54.6960907 C-54.86425593 59.15044586 -54.85835824 63.60477434 -54.85139394 68.05912328 C-54.84516139 72.70896474 -54.84455668 77.35880674 -54.84336853 82.00865173 C-54.84025492 90.82011702 -54.83204113 99.63156997 -54.82201904 108.44302982 C-54.81085882 118.47188108 -54.80534768 128.50073291 -54.80032361 138.52958882 C-54.78985854 159.16556611 -54.77225853 179.80153228 -54.75 200.4375 C-44.72613692 200.55413897 -34.70243933 200.64258885 -24.67803192 200.69656086 C-20.02159899 200.72248492 -15.36563551 200.75756201 -10.70947266 200.81469727 C-6.20307404 200.86963902 -1.69712253 200.89904921 2.80958557 200.91188622 C4.51574223 200.92101605 6.2218787 200.93883893 7.92784119 200.96615028 C23.13373116 201.1995633 35.50617507 198.06398702 49.25 191.4375 C49.25 190.7775 49.25 190.1175 49.25 189.4375 C50.12591797 189.03337891 50.12591797 189.03337891 51.01953125 188.62109375 C63.27594101 182.11725459 72.79449007 168.12072622 76.96923828 155.21386719 C81.06699834 141.54358447 82.42305161 128.74285192 82.38037109 114.50561523 C82.37500105 112.3754162 82.38035192 110.24542712 82.38671875 108.11523438 C82.40126237 86.66527236 77.70303987 67.8498834 63.25 51.4375 C59.7821699 47.80254952 59.7821699 47.80254952 55.25 46.4375 C55.25 45.7775 55.25 45.1175 55.25 44.4375 C52.85496313 43.31077825 50.4590129 42.18607442 48.0625 41.0625 C47.05219727 40.58683594 47.05219727 40.58683594 46.02148438 40.1015625 C18.65982175 27.2882961 -13.71558854 30.04987958 -43.0625 32.4375 Z " fill="#6D4E42" transform="translate(242.75,28.5625)"/>
<path d="M0 0 C1.37562854 1.28965176 2.70766393 2.62689293 4 4 C4 4.66 4 5.32 4 6 C4.66 6 5.32 6 6 6 C6.33 6.99 6.66 7.98 7 9 C4.69 9.66 2.38 10.32 0 11 C-1.10868317 7.67395049 -1.54177532 4.46941546 -2 1 C-1.34 0.67 -0.68 0.34 0 0 Z " fill="#7A6157" transform="translate(403,388)"/>
<path d="M0 0 C0.99 0.33 1.98 0.66 3 1 C4.1875 4.0625 4.1875 4.0625 5 7 C4.401875 6.814375 3.80375 6.62875 3.1875 6.4375 C0.83591238 5.77906313 0.83591238 5.77906313 -2 7 C-2.33 6.01 -2.66 5.02 -3 4 C-1 1 -1 1 0 0 Z " fill="#7A6258" transform="translate(350,297)"/>
<path d="M0 0 C6.93 0.495 6.93 0.495 14 1 C14 1.66 14 2.32 14 3 C8.25 4.125 8.25 4.125 6 3 C6 2.34 6 1.68 6 1 C4.02 1 2.04 1 0 1 C0 0.67 0 0.34 0 0 Z " fill="#8D786F" transform="translate(281,31)"/>
<path d="M0 0 C0.33 0 0.66 0 1 0 C1.33 3.63 1.66 7.26 2 11 C3.98 11 5.96 11 8 11 C4.91190305 12.76462683 3.76687864 13 0 13 C0 8.71 0 4.42 0 0 Z " fill="#6B564F" transform="translate(84,424)"/>
<path d="M0 0 C0.33 0.66 0.66 1.32 1 2 C1.66 2 2.32 2 3 2 C3.625 3.8125 3.625 3.8125 4 6 C3.01 7.485 3.01 7.485 2 9 C-1.07692308 4.56923077 -1.07692308 4.56923077 -0.6875 1.6875 C-0.460625 1.130625 -0.23375 0.57375 0 0 Z " fill="#7E685D" transform="translate(339,278)"/>
<path d="M0 0 C2.50298434 2.93828597 3.46930939 5.17902761 4 9 C3.01 9.33 2.02 9.66 1 10 C-0.60725635 6.78548731 -0.05748185 3.56387464 0 0 Z " fill="#846E60" transform="translate(378,83)"/>
<path d="M0 0 C1.09658936 3.28976808 0.79953138 4.71303767 0 8 C-4 3.25 -4 3.25 -4 1 C-2.68 0.67 -1.36 0.34 0 0 Z " fill="#867168" transform="translate(317,88)"/>
<path d="M0 0 C3.3 0.66 6.6 1.32 10 2 C10 2.33 10 2.66 10 3 C8.741875 3.185625 7.48375 3.37125 6.1875 3.5625 C5.12595703 3.71912109 5.12595703 3.71912109 4.04296875 3.87890625 C2 4 2 4 -1 3 C-0.67 2.01 -0.34 1.02 0 0 Z " fill="#847367" transform="translate(416,402)"/>
<path d="M0 0 C0.99 0.33 1.98 0.66 3 1 C3.3721042 2.32303717 3.70630173 3.65737935 4 5 C4.66 5.33 5.32 5.66 6 6 C5.34 6 4.68 6 4 6 C3.67 6.99 3.34 7.98 3 9 C2.01 6.03 1.02 3.06 0 0 Z " fill="#8F7E77" transform="translate(316,356)"/>
<path d="M0 0 C2.475 0.495 2.475 0.495 5 1 C4.67 2.65 4.34 4.3 4 6 C2.62437146 4.71034824 1.29233607 3.37310707 0 2 C0 1.34 0 0.68 0 0 Z " fill="#7C665E" transform="translate(329,384)"/>
<path d="M0 0 C3.875 4.75 3.875 4.75 5 7 C3.68 7 2.36 7 1 7 C-0.0625 5.1875 -0.0625 5.1875 -1 3 C-0.67 2.01 -0.34 1.02 0 0 Z " fill="#88786F" transform="translate(387,361)"/>
<path d="M0 0 C4.875 4.75 4.875 4.75 6 7 C4.35 6.67 2.7 6.34 1 6 C0.4465236 3.92446352 0 2.15634036 0 0 Z " fill="#8B7A74" transform="translate(325,261)"/>
<path d="M0 0 C2.72426311 2.35277269 3.8141763 4.62496331 5 8 C3.68 7.67 2.36 7.34 1 7 C0.67 4.69 0.34 2.38 0 0 Z " fill="#847169" transform="translate(368,327)"/>
<path d="M0 0 C3.65316671 1.24976756 4.78065836 1.67098753 7 5 C6.34 5.66 5.68 6.32 5 7 C3.35 4.69 1.7 2.38 0 0 Z " fill="#827065" transform="translate(272,275)"/>
<path d="M0 0 C1.32 0.99 2.64 1.98 4 3 C2.68 4.32 1.36 5.64 0 7 C-0.38133299 5.0085944 -0.71325582 3.00720923 -1 1 C-0.67 0.67 -0.34 0.34 0 0 Z " fill="#876C64" transform="translate(366,202)"/>
<path d="M0 0 C2.9375 0.8125 2.9375 0.8125 6 2 C6.33 2.99 6.66 3.98 7 5 C4.03 4.01 1.06 3.02 -2 2 C-1.34 1.34 -0.68 0.68 0 0 Z " fill="#8F837B" transform="translate(287,66)"/>
</svg>
